<svg width="223" height="21" viewBox="0 0 223 21" fill="none" xmlns="http://www.w3.org/2000/svg">
<path fill-rule="evenodd" clip-rule="evenodd" d="M1.53463 0.112958C0.706592 -0.014874 0.0234375 0.676229 0.0234375 1.51408C0.0234375 2.35193 0.710608 3.01457 1.52846 3.19654C2.82192 3.48433 4.01886 4.13975 4.97008 5.10037C6.28201 6.42528 7.01904 8.22225 7.01904 10.096C7.01904 11.9697 6.28201 13.7666 4.97008 15.0915C4.01887 16.0522 2.82193 16.7076 1.52846 16.9954C0.710609 17.1773 0.0234375 17.84 0.0234375 18.6778C0.0234375 19.5157 0.706594 20.2068 1.53463 20.0789C3.62739 19.7559 5.5791 18.7674 7.09451 17.237C8.73245 15.5828 9.74351 13.4139 9.97325 11.1068H220.51C221.346 11.1068 222.023 10.4292 222.023 9.59347C222.023 8.7565 221.344 8.07847 220.507 8.08016L9.89879 8.50612C9.56899 6.41676 8.59468 4.46995 7.09451 2.95493C5.5791 1.42453 3.62739 0.436036 1.53463 0.112958Z" fill="#3A3840"/>
</svg>
