<svg width="68" height="68" viewBox="0 0 68 68" fill="none" xmlns="http://www.w3.org/2000/svg">
<rect width="68" height="68" rx="20" fill="#F1F1F1"/>
<path d="M20 26.5274C19.4477 26.5274 19 26.9751 19 27.5274C19 28.0797 19.4477 28.5274 20 28.5274V26.5274ZM48 28.5274C48.5523 28.5274 49 28.0797 49 27.5274C49 26.9751 48.5523 26.5274 48 26.5274V28.5274ZM22.1538 22V21V22ZM20 23.8462H19H20ZM20 44.1538H19H20ZM29.7071 34.7071C30.0976 34.3166 30.0976 33.6834 29.7071 33.2929C29.3166 32.9024 28.6834 32.9024 28.2929 33.2929L29.7071 34.7071ZM27.1314 35.8686L27.8385 36.5757L27.8385 36.5757L27.1314 35.8686ZM27.1314 38.1314L27.8385 37.4243L27.8385 37.4243L27.1314 38.1314ZM28.2929 40.7071C28.6834 41.0976 29.3166 41.0976 29.7071 40.7071C30.0976 40.3166 30.0976 39.6834 29.7071 39.2929L28.2929 40.7071ZM38.2929 39.2929C37.9024 39.6834 37.9024 40.3166 38.2929 40.7071C38.6834 41.0976 39.3166 41.0976 39.7071 40.7071L38.2929 39.2929ZM40.8686 38.1314L41.5757 38.8385L41.5757 38.8385L40.8686 38.1314ZM40.8686 35.8686L40.1615 36.5757L40.1615 36.5757L40.8686 35.8686ZM39.7071 33.2929C39.3166 32.9024 38.6834 32.9024 38.2929 33.2929C37.9024 33.6834 37.9024 34.3166 38.2929 34.7071L39.7071 33.2929ZM41.5368 37.309L42.4879 37.618L42.4879 37.618L41.5368 37.309ZM41.5368 36.691L42.4879 36.382L42.4879 36.382L41.5368 36.691ZM26.4632 36.691L25.5121 36.382L25.5121 36.382L26.4632 36.691ZM26.4632 37.309L25.5121 37.618L25.5121 37.618L26.4632 37.309ZM20 28.5274H48V26.5274H20V28.5274ZM45.8462 21H22.1538V23H45.8462V21ZM22.1538 21C21.3629 21 20.5792 21.2679 19.9801 21.7815L21.2816 23.3C21.4904 23.1211 21.8023 23 22.1538 23V21ZM19.9801 21.7815C19.3762 22.2991 19 23.0372 19 23.8462H21C21 23.6759 21.0777 23.4748 21.2816 23.3L19.9801 21.7815ZM19 23.8462V44.1538H21V23.8462H19ZM19 44.1538C19 44.9628 19.3762 45.7009 19.9801 46.2185L21.2816 44.7C21.0777 44.5252 21 44.3241 21 44.1538H19ZM19.9801 46.2185C20.5792 46.7321 21.3629 47 22.1538 47V45C21.8023 45 21.4904 44.8789 21.2816 44.7L19.9801 46.2185ZM22.1538 47H45.8462V45H22.1538V47ZM45.8462 47C46.6371 47 47.4208 46.7321 48.0199 46.2185L46.7184 44.7C46.5096 44.8789 46.1977 45 45.8462 45V47ZM48.0199 46.2185C48.6238 45.7009 49 44.9628 49 44.1538H47C47 44.3241 46.9223 44.5252 46.7184 44.7L48.0199 46.2185ZM49 44.1538V23.8462H47V44.1538H49ZM49 23.8462C49 23.0372 48.6238 22.2991 48.0199 21.7815L46.7184 23.3C46.9223 23.4748 47 23.6759 47 23.8462H49ZM48.0199 21.7815C47.4208 21.2679 46.6371 21 45.8462 21V23C46.1977 23 46.5096 23.1211 46.7184 23.3L48.0199 21.7815ZM28.2929 33.2929L26.4243 35.1615L27.8385 36.5757L29.7071 34.7071L28.2929 33.2929ZM26.4243 38.8385L28.2929 40.7071L29.7071 39.2929L27.8385 37.4243L26.4243 38.8385ZM39.7071 40.7071L41.5757 38.8385L40.1615 37.4243L38.2929 39.2929L39.7071 40.7071ZM41.5757 35.1615L39.7071 33.2929L38.2929 34.7071L40.1615 36.5757L41.5757 35.1615ZM41.5757 38.8385C41.7621 38.6521 41.9449 38.4704 42.0858 38.3045C42.2342 38.1296 42.3938 37.9078 42.4879 37.618L40.5858 37C40.6057 36.9386 40.6292 36.9299 40.5611 37.0101C40.4854 37.0993 40.3712 37.2146 40.1615 37.4243L41.5757 38.8385ZM40.1615 36.5757C40.3712 36.7854 40.4854 36.9007 40.5611 36.9899C40.6292 37.0701 40.6057 37.0614 40.5858 37L42.4879 36.382C42.3938 36.0922 42.2342 35.8704 42.0858 35.6955C41.9449 35.5296 41.7621 35.3479 41.5757 35.1615L40.1615 36.5757ZM42.4879 37.618C42.6184 37.2163 42.6184 36.7837 42.4879 36.382L40.5858 37V37L42.4879 37.618ZM26.4243 35.1615C26.2379 35.3479 26.0551 35.5296 25.9142 35.6955C25.7658 35.8704 25.6062 36.0922 25.5121 36.382L27.4142 37C27.3943 37.0614 27.3708 37.0701 27.4389 36.9899C27.5146 36.9007 27.6288 36.7854 27.8385 36.5757L26.4243 35.1615ZM27.8385 37.4243C27.6288 37.2146 27.5146 37.0993 27.4389 37.0101C27.3708 36.9299 27.3943 36.9386 27.4142 37L25.5121 37.618C25.6062 37.9078 25.7658 38.1296 25.9142 38.3045C26.0551 38.4704 26.2379 38.6521 26.4243 38.8385L27.8385 37.4243ZM25.5121 36.382C25.3816 36.7837 25.3816 37.2163 25.5121 37.618L27.4142 37V37L25.5121 36.382Z" fill="#A3BBC2"/>
</svg>
